<?xml version="1.0" encoding="UTF-8" standalone="no"?>
<svg
   xmlns:dc="http://purl.org/dc/elements/1.1/"
   xmlns:cc="http://creativecommons.org/ns#"
   xmlns:rdf="http://www.w3.org/1999/02/22-rdf-syntax-ns#"
   xmlns:svg="http://www.w3.org/2000/svg"
   xmlns="http://www.w3.org/2000/svg"
   xmlns:sodipodi="http://sodipodi.sourceforge.net/DTD/sodipodi-0.dtd"
   xmlns:inkscape="http://www.inkscape.org/namespaces/inkscape"
   id="Ebene_1"
   data-name="Ebene 1"
   viewBox="0 0 282.89225 149.95257"
   version="1.1"
   inkscape:version="0.48.3.1 r9886"
   width="100%"
   height="100%"
   sodipodi:docname="GnuPG finnished Logo.svg">
  <metadata
     id="metadata43">
    <rdf:RDF>
      <cc:Work
         rdf:about="">
        <dc:format>image/svg+xml</dc:format>
        <dc:type
           rdf:resource="http://purl.org/dc/dcmitype/StillImage" />
        <dc:title>GnuPG finnished Logo</dc:title>
      </cc:Work>
    </rdf:RDF>
  </metadata>
  <sodipodi:namedview
     pagecolor="#ffffff"
     bordercolor="#666666"
     borderopacity="1"
     objecttolerance="10"
     gridtolerance="10"
     guidetolerance="10"
     inkscape:pageopacity="0"
     inkscape:pageshadow="2"
     inkscape:window-width="1680"
     inkscape:window-height="993"
     id="namedview41"
     showgrid="false"
     inkscape:zoom="0.70710678"
     inkscape:cx="-36.034809"
     inkscape:cy="65.248886"
     inkscape:window-x="-3"
     inkscape:window-y="-3"
     inkscape:window-maximized="1"
     inkscape:current-layer="Ebene_1"
     fit-margin-top="8"
     fit-margin-left="10"
     fit-margin-right="10"
     fit-margin-bottom="5">
    <inkscape:grid
       type="xygrid"
       id="grid3986"
       empspacing="5"
       visible="true"
       enabled="true"
       snapvisiblegridlinesonly="true"
       originx="9.825071px"
       originy="3.6287778px" />
  </sodipodi:namedview>
  <defs
     id="defs3">
    <style
       id="style5">.cls-1{fill:#0093dd;}.cls-2{fill:#fff;}.cls-3{fill:#3d3c3b;}</style>
  </defs>
  <title
     id="title7">GnuPG finnished Logo</title>
  <g
     id="g3988"
     transform="matrix(0.91307227,0,0,0.91307227,-98.761644,-486.00469)">
    <path
       sodipodi:nodetypes="ccsccccscccccccc"
       inkscape:connector-curvature="0"
       d="m 219.06573,610.32168 0,-27.55781 c 0,0 -0.0657,-42.00385 -45.03338,-41.72682 -46.03231,0.28359 -45.90782,41.66517 -45.90782,41.66517 l 0,27.5609 20.69495,0.0729 0,-27.61756 c 0,0 0.18051,-20.72669 24.77565,-20.84069 25.40488,-0.11775 25.21287,20.69495 25.21287,20.69495 l 0,27.74898 z m -99.93633,-9.1e-4 108.01344,0 0,74.50904 -108.01344,0 z"
       style="fill:#0093dd;fill-opacity:1;stroke:none"
       id="path3959" />
    <path
       sodipodi:nodetypes="cscsc"
       inkscape:connector-curvature="0"
       id="path3972"
       d="m 134.33927,577.76626 c 0,0 5.22919,-13.51262 17.80414,-22.23599 7.95434,-5.518 24.53006,-10.50615 40.00865,-4.04256 0,0 -18.24702,-14.16427 -40.61251,-0.3954 -7.40318,4.55762 -14.18074,12.18623 -17.20028,26.67395 z"
       style="fill:#ffffff;fill-opacity:1;stroke:none" />
    <path
       sodipodi:nodetypes="cscccccccsccc"
       inkscape:connector-curvature="0"
       id="path3984"
       d="m 119.11614,649.26174 c 0,0 13.54411,-23.50192 49.66179,-24.13323 33.83211,-0.59136 50.2841,-14.81406 50.2841,-14.81406 l 8.08565,0 0,9.56745 c 0,0 -23.96751,26.23304 -57.19603,25.3586 34.68591,5.82957 56.83826,-14.28242 56.83826,-14.28242 0,0 -8.49322,33.51999 -72.32695,32.64555 37.30921,9.32731 60.07705,-5.2466 60.07705,-5.2466 0,0 -8.38334,22.09863 -53.56148,21.80141 -22.15235,-0.14574 -23.75548,4.67387 -23.75548,4.67387 l -18.09323,10e-4 z"
       style="fill:#ffffff;fill-opacity:1;stroke:none" />
  </g>
  <g
     transform="matrix(0.94366019,0,0,1.0597035,9.8250713,5.5637921)"
     style="font-size:49.35250854px;font-style:normal;font-variant:normal;font-weight:bold;font-stretch:normal;text-align:center;line-height:125%;letter-spacing:0.37014386px;word-spacing:0px;writing-mode:lr-tb;text-anchor:middle;fill:#3d3c3b;fill-opacity:1;stroke:none;font-family:Roboto Condensed;-inkscape-font-specification:'Roboto Condensed, Bold'"
     id="text3993">
    <path
       d="m 140.70848,93.433811 c -0.36953,0.401636 -0.86755,0.859495 -1.49407,1.373581 -0.62657,0.514091 -1.41377,1.004081 -2.3616,1.469972 -0.9318,0.449828 -2.03227,0.827362 -3.30141,1.132602 -1.26917,0.321305 -2.73111,0.481957 -4.38582,0.481958 -1.95997,-10e-7 -3.72715,-0.305241 -5.30154,-0.915721 -1.5744,-0.610479 -2.92388,-1.534231 -4.04845,-2.771259 -1.12457,-1.237021 -1.99209,-2.795351 -2.60257,-4.674993 -0.59442,-1.895692 -0.89162,-4.12073 -0.89162,-6.67512 l 0,-5.928084 c 0,-2.554355 0.28917,-4.77136 0.86752,-6.651022 0.57835,-1.895673 1.39768,-3.470068 2.45799,-4.723189 1.07637,-1.253058 2.37765,-2.184843 3.90386,-2.795357 1.54225,-0.610445 3.26927,-0.915685 5.18105,-0.915721 1.99208,3.6e-5 3.71106,0.249047 5.15695,0.747035 1.44585,0.498058 2.65075,1.245092 3.61469,2.241106 0.96389,0.980013 1.70289,2.200972 2.217,3.662881 0.51407,1.445902 0.8434,3.116688 0.98802,5.012364 l -6.892,0 c -0.0964,-1.108478 -0.25707,-2.03223 -0.48196,-2.771259 -0.20887,-0.738975 -0.51411,-1.325357 -0.91572,-1.759147 -0.38559,-0.449799 -0.86754,-0.771104 -1.44588,-0.963916 -0.5623,-0.192754 -1.23704,-0.289145 -2.02422,-0.289175 -0.9318,3e-5 -1.74309,0.168715 -2.43389,0.506056 -0.69082,0.321334 -1.26917,0.851488 -1.73505,1.590462 -0.44983,0.722964 -0.78721,1.670814 -1.01211,2.843553 -0.22492,1.156723 -0.33738,2.562432 -0.33737,4.217133 l 0,5.97628 c -1e-5,1.670801 0.12048,3.084543 0.36147,4.241231 0.25703,1.156709 0.63457,2.104559 1.1326,2.843553 0.51408,0.722944 1.15669,1.253097 1.92783,1.590462 0.77112,0.321311 1.67881,0.481963 2.72307,0.481958 0.62653,5e-6 1.15668,-0.04819 1.59046,-0.144588 0.44981,-0.09639 0.82734,-0.208842 1.1326,-0.33737 0.32129,-0.144582 0.57833,-0.289169 0.77113,-0.433762 0.20883,-0.144581 0.38555,-0.265071 0.53016,-0.361469 l 0,-6.434141 -4.96417,0 0,-5.349734 12.07305,0 0,14.48284"
       id="path4047"
       inkscape:connector-curvature="0" />
    <path
       d="m 152.04317,71.336033 0.19278,2.578476 c 0.75506,-0.996023 1.63865,-1.75109 2.65077,-2.265203 1.0121,-0.530128 2.1447,-0.795205 3.39781,-0.795231 1.01209,2.6e-5 1.94388,0.176744 2.79535,0.530154 0.85144,0.337396 1.58241,0.89968 2.19291,1.686853 0.61046,0.787222 1.08439,1.815398 1.42178,3.084532 0.33735,1.269176 0.50603,2.827506 0.50605,4.674993 l 0,16.579359 -6.8438,0 0,-16.603457 c -2e-5,-0.835376 -0.0643,-1.526182 -0.19278,-2.07242 -0.12854,-0.546199 -0.32132,-0.979961 -0.57835,-1.301286 -0.241,-0.321285 -0.54624,-0.546199 -0.91572,-0.674742 -0.36952,-0.128501 -0.80328,-0.192762 -1.30129,-0.192783 -0.64262,2.1e-5 -1.20491,0.168706 -1.68685,0.506056 -0.48197,0.337391 -0.8836,0.803283 -1.2049,1.397679 l 0,18.940953 -6.8438,0 0,-26.073933 6.41004,0"
       id="path4049"
       inkscape:connector-curvature="0" />
    <path
       d="m 183.28273,95.024273 c -0.67476,0.915722 -1.48605,1.622593 -2.43389,2.120616 -0.9318,0.498023 -2.0162,0.747034 -3.25322,0.747035 -1.09245,-10e-7 -2.08849,-0.176719 -2.98814,-0.530154 -0.88359,-0.369501 -1.64669,-0.939818 -2.2893,-1.710952 -0.64261,-0.787195 -1.14064,-1.791274 -1.49407,-3.012238 -0.35344,-1.237019 -0.53016,-2.715023 -0.53015,-4.434014 l 0,-16.868533 6.8197,0 0,16.916729 c -1e-5,1.429817 0.23294,2.44996 0.69884,3.060434 0.46588,0.59442 1.07636,0.891627 1.83144,0.891622 0.83538,5e-6 1.52619,-0.176712 2.07242,-0.530154 0.54621,-0.369495 0.97997,-0.867518 1.30129,-1.49407 l 0,-18.844561 6.8679,0 0,26.073933 -6.41004,0 -0.19278,-2.385693"
       id="path4051"
       inkscape:connector-curvature="0" />
    <path
       d="m 202.54563,85.071838 0,12.338128 -7.08479,0 0,-35.08655 11.95256,0 c 1.78323,3.6e-5 3.37369,0.28921 4.77139,0.867525 1.41372,0.578383 2.61058,1.389679 3.59059,2.433888 0.97995,1.028208 1.72699,2.2572 2.2411,3.68698 0.53013,1.41377 0.79521,2.956035 0.79523,4.626797 -2e-5,1.702941 -0.2651,3.245205 -0.79523,4.626798 -0.51411,1.365566 -1.26115,2.530296 -2.2411,3.494196 -0.98001,0.963931 -2.17687,1.710965 -3.59059,2.241105 -1.41376,0.514102 -3.00422,0.771146 -4.77139,0.771133 l -4.86777,0 m 0,-5.903986 4.86777,0 c 0.73899,1.8e-5 1.37357,-0.128504 1.90374,-0.385567 0.5462,-0.257025 0.98799,-0.610461 1.32538,-1.060308 0.35342,-0.465872 0.61046,-1.012091 0.77114,-1.638657 0.16063,-0.642589 0.24096,-1.341427 0.24098,-2.096518 -2e-5,-0.755043 -0.0804,-1.47798 -0.24098,-2.168811 -0.16068,-0.69078 -0.41772,-1.30126 -0.77114,-1.831441 -0.33739,-0.530126 -0.77918,-0.955855 -1.32538,-1.277189 -0.53017,-0.321276 -1.16475,-0.481929 -1.90374,-0.481958 l -4.86777,0 0,10.940449"
       id="path4053"
       inkscape:connector-curvature="0" />
    <path
       d="m 247.73787,93.433811 c -0.36952,0.401636 -0.86755,0.859495 -1.49407,1.373581 -0.62657,0.514091 -1.41376,1.004081 -2.36159,1.469972 -0.93181,0.449828 -2.03228,0.827362 -3.30141,1.132602 -1.26918,0.321305 -2.73112,0.481957 -4.38582,0.481958 -1.95998,-10e-7 -3.72716,-0.305241 -5.30154,-0.915721 -1.57441,-0.610479 -2.92389,-1.534231 -4.04845,-2.771259 -1.12457,-1.237021 -1.9921,-2.795351 -2.60257,-4.674993 -0.59442,-1.895692 -0.89163,-4.12073 -0.89163,-6.67512 l 0,-5.928084 c 0,-2.554355 0.28918,-4.77136 0.86753,-6.651022 0.57835,-1.895673 1.39767,-3.470068 2.45799,-4.723189 1.07636,-1.253058 2.37765,-2.184843 3.90386,-2.795357 1.54225,-0.610445 3.26927,-0.915685 5.18105,-0.915721 1.99207,3.6e-5 3.71105,0.249047 5.15695,0.747035 1.44585,0.498058 2.65074,1.245092 3.61468,2.241106 0.96389,0.980013 1.7029,2.200972 2.21701,3.662881 0.51406,1.445902 0.8434,3.116688 0.98801,5.012364 l -6.892,0 c -0.0964,-1.108478 -0.25706,-2.03223 -0.48195,-2.771259 -0.20887,-0.738975 -0.51411,-1.325357 -0.91573,-1.759147 -0.38558,-0.449799 -0.86754,-0.771104 -1.44587,-0.963916 -0.5623,-0.192754 -1.23704,-0.289145 -2.02422,-0.289175 -0.9318,3e-5 -1.7431,0.168715 -2.43389,0.506056 -0.69082,0.321334 -1.26917,0.851488 -1.73505,1.590462 -0.44984,0.722964 -0.78721,1.670814 -1.01211,2.843553 -0.22493,1.156723 -0.33738,2.562432 -0.33737,4.217133 l 0,5.97628 c -1e-5,1.670801 0.12048,3.084543 0.36146,4.241231 0.25704,1.156709 0.63457,2.104559 1.13261,2.843553 0.51407,0.722944 1.15668,1.253097 1.92783,1.590462 0.77112,0.321311 1.6788,0.481963 2.72306,0.481958 0.62653,5e-6 1.15668,-0.04819 1.59046,-0.144588 0.44981,-0.09639 0.82735,-0.208842 1.13261,-0.33737 0.32128,-0.144582 0.57833,-0.289169 0.77113,-0.433762 0.20883,-0.144581 0.38555,-0.265071 0.53015,-0.361469 l 0,-6.434141 -4.96417,0 0,-5.349734 12.07305,0 0,14.48284"
       id="path4055"
       inkscape:connector-curvature="0" />
  </g>
  <g
     transform="matrix(0.97137928,0,0,1.029464,9.8250713,5.5637921)"
     style="font-size:26.15917969px;font-style:normal;font-variant:normal;font-weight:300;font-stretch:normal;text-align:center;line-height:125%;letter-spacing:0.19619386px;word-spacing:0px;writing-mode:lr-tb;text-anchor:middle;fill:#3d3c3b;fill-opacity:1;stroke:none;font-family:Roboto Condensed;-inkscape-font-specification:'Roboto Condensed, Light'"
     id="text3997">
    <path
       d="m 124.26446,124.01859 c -0.13626,2.08627 -0.69827,3.61903 -1.68604,4.5983 -0.98779,0.97075 -2.3545,1.45612 -4.10014,1.45612 -0.89412,0 -1.70308,-0.17456 -2.42688,-0.52369 -0.71529,-0.34913 -1.32414,-0.85154 -1.82654,-1.50722 -0.50241,-0.65568 -0.88986,-1.45187 -1.16235,-2.38856 -0.27249,-0.9452 -0.40874,-2.00962 -0.40874,-3.19326 l 0,-3.99796 c 0,-1.16659 0.13625,-2.21398 0.40874,-3.14217 0.27249,-0.92815 0.6642,-1.71157 1.17512,-2.35024 0.51092,-0.64714 1.13254,-1.14104 1.86486,-1.48167 0.73232,-0.34911 1.56256,-0.52367 2.49075,-0.52369 0.84301,2e-5 1.59662,0.11923 2.26082,0.35764 0.67271,0.23845 1.25175,0.60461 1.73714,1.09848 0.48536,0.49391 0.86855,1.12405 1.14957,1.89041 0.28099,0.7664 0.45556,1.67754 0.52369,2.73343 l -1.48167,0 c -0.0681,-0.85152 -0.20012,-1.57532 -0.39596,-2.17141 -0.19587,-0.59606 -0.46836,-1.08144 -0.81748,-1.45613 -0.34062,-0.37466 -0.75787,-0.64715 -1.25175,-0.81747 -0.4939,-0.17029 -1.06869,-0.25545 -1.72436,-0.25546 -0.72382,10e-6 -1.36247,0.14052 -1.91596,0.42151 -0.5535,0.2725 -1.02185,0.66847 -1.40503,1.18789 -0.37468,0.51945 -0.65995,1.1581 -0.8558,1.91595 -0.18734,0.75788 -0.28101,1.61368 -0.281,2.56738 l 0,4.02351 c -1e-5,0.94521 0.0894,1.80526 0.26823,2.58015 0.18733,0.76639 0.45982,1.42207 0.81747,1.96705 0.36616,0.54499 0.81747,0.9665 1.35395,1.26453 0.54497,0.29804 1.17937,0.44706 1.90318,0.44706 0.68122,0 1.27729,-0.0766 1.78822,-0.22992 0.51091,-0.16179 0.94094,-0.42576 1.29008,-0.79192 0.34912,-0.36616 0.62161,-0.84728 0.81747,-1.44336 0.20436,-0.60458 0.34061,-1.34968 0.40874,-2.23528 l 1.48167,0"
       id="path4020"
       inkscape:connector-curvature="0" />
    <path
       d="m 133.23573,117.32552 c -0.14476,-0.0255 -0.28953,-0.0468 -0.43428,-0.0639 -0.13625,-0.017 -0.28953,-0.0255 -0.45983,-0.0256 -0.41726,1e-5 -0.79619,0.0767 -1.1368,0.22991 -0.3321,0.14478 -0.62588,0.3534 -0.88134,0.62588 -0.25546,0.26399 -0.47686,0.58332 -0.6642,0.95798 -0.17882,0.37469 -0.31933,0.78342 -0.42151,1.22621 l 0,9.54146 -1.4178,0 0,-13.82043 1.39226,0 0.0255,2.06924 c 0.31507,-0.7238 0.73232,-1.29007 1.25176,-1.69882 0.51943,-0.41724 1.15808,-0.62586 1.91596,-0.62588 0.15327,2e-5 0.31506,0.017 0.48537,0.0511 0.1703,0.0341 0.29377,0.0724 0.37042,0.11495 l -0.0256,1.41781"
       id="path4022"
       inkscape:connector-curvature="0" />
    <path
       d="m 139.86954,127.48008 3.29544,-11.48296 1.51999,0 -4.86652,16.03017 c -0.10219,0.31506 -0.22992,0.66845 -0.3832,1.06016 -0.15328,0.3917 -0.35764,0.75786 -0.6131,1.09848 -0.25547,0.34061 -0.57053,0.62587 -0.94521,0.85579 -0.36616,0.23843 -0.81322,0.35764 -1.34116,0.35765 -0.0766,-1e-5 -0.1618,-0.009 -0.25547,-0.0256 -0.0937,-0.009 -0.19159,-0.0213 -0.29378,-0.0383 -0.0937,-0.017 -0.18308,-0.0383 -0.26823,-0.0639 -0.0851,-0.017 -0.15328,-0.0341 -0.20437,-0.0511 l -0.0128,-1.30285 c 0.0851,0.0255 0.19585,0.0468 0.3321,0.0639 0.14476,0.017 0.2512,0.0255 0.31932,0.0256 0.34062,-10e-6 0.63865,-0.0554 0.89412,-0.16605 0.26397,-0.10219 0.49388,-0.25972 0.68974,-0.47261 0.20437,-0.20437 0.38319,-0.46409 0.53647,-0.77915 0.15327,-0.30656 0.28952,-0.6642 0.40874,-1.07294 l 0.53646,-1.78822 -4.34283,-13.73102 1.55831,0 3.43595,11.48296"
       id="path4024"
       inkscape:connector-curvature="0" />
    <path
       d="m 156.74732,123.55876 c -1e-5,1.11552 -0.1022,2.08201 -0.30655,2.89948 -0.19587,0.81748 -0.48113,1.49445 -0.8558,2.03091 -0.37468,0.53647 -0.83877,0.93669 -1.39226,1.20067 -0.55351,0.25546 -1.17938,0.38319 -1.87764,0.38319 -0.83451,0 -1.5498,-0.16605 -2.14587,-0.49815 -0.58756,-0.34061 -1.06868,-0.81321 -1.44335,-1.4178 l 0,6.97407 -1.40503,0 0,-19.13401 1.30285,0 0.0639,1.89041 c 0.38319,-0.6727 0.86856,-1.19639 1.45613,-1.57108 0.58755,-0.38318 1.29858,-0.57477 2.1331,-0.57479 0.71528,2e-5 1.34967,0.12349 1.90318,0.37042 0.55349,0.24696 1.02183,0.63441 1.40503,1.16235 0.38318,0.52796 0.6727,1.20493 0.86857,2.03091 0.19584,0.81749 0.29377,1.80527 0.29378,2.96335 l 0,1.29007 m -1.41781,-1.29007 c -1e-5,-1.77119 -0.27676,-3.07404 -0.83025,-3.90855 -0.54499,-0.8345 -1.40078,-1.25175 -2.56738,-1.25176 -0.43429,1e-5 -0.82599,0.0639 -1.17512,0.19159 -0.34062,0.11923 -0.64291,0.28528 -0.90688,0.49815 -0.25547,0.2129 -0.47687,0.45559 -0.6642,0.72807 -0.17883,0.2725 -0.3321,0.56202 -0.45983,0.86856 l 0,7.28063 c 0.13624,0.29804 0.30229,0.57479 0.49815,0.83025 0.20436,0.25546 0.43854,0.47686 0.70252,0.6642 0.26397,0.18734 0.562,0.3321 0.89411,0.43428 0.34061,0.10219 0.71954,0.15328 1.1368,0.15328 1.14956,0 1.99684,-0.42151 2.54183,-1.26453 0.55349,-0.85153 0.83024,-2.1629 0.83025,-3.9341 l 0,-1.29007"
       id="path4026"
       inkscape:connector-curvature="0" />
    <path
       d="m 162.37205,112.47177 0,3.52535 2.36302,0 0,1.27731 -2.36302,0 0,9.18381 c 0,0.47686 0.0383,0.86431 0.11496,1.16235 0.0851,0.28952 0.19585,0.51518 0.3321,0.67697 0.13624,0.16179 0.28952,0.27249 0.45983,0.3321 0.17882,0.0511 0.36616,0.0766 0.56201,0.0766 0.18734,0 0.37042,-0.0128 0.54924,-0.0383 0.17882,-0.0341 0.33635,-0.0639 0.47261,-0.0894 l 0.0383,1.2773 c -0.15329,0.0681 -0.35766,0.11921 -0.61311,0.15328 -0.24695,0.0426 -0.50667,0.0639 -0.77916,0.0639 -0.36616,0 -0.70677,-0.0596 -1.02184,-0.17882 -0.30655,-0.11922 -0.57479,-0.31933 -0.8047,-0.60033 -0.22992,-0.28101 -0.40874,-0.65143 -0.53647,-1.11126 -0.12773,-0.46834 -0.1916,-1.04738 -0.19159,-1.73713 l 0,-9.17104 -2.1331,0 0,-1.27731 2.1331,0 0,-3.52535 1.4178,0"
       id="path4028"
       inkscape:connector-curvature="0" />
    <path
       d="m 167.20486,122.20482 c 0,-1.04738 0.12347,-1.9713 0.37042,-2.77175 0.24694,-0.80043 0.59181,-1.47314 1.03461,-2.01814 0.4428,-0.55348 0.97075,-0.97074 1.58386,-1.25176 0.62162,-0.28099 1.3071,-0.42149 2.05646,-0.42151 0.75786,2e-5 1.4476,0.14052 2.06923,0.42151 0.62161,0.28102 1.15382,0.69828 1.59663,1.25176 0.44279,0.545 0.7834,1.21771 1.02184,2.01814 0.24694,0.80045 0.37041,1.72437 0.37042,2.77175 l 0,1.43058 c -1e-5,1.04739 -0.12348,1.97131 -0.37042,2.77175 -0.23844,0.80045 -0.57905,1.47316 -1.02184,2.01814 -0.44281,0.53647 -0.97502,0.9452 -1.59663,1.22621 -0.61311,0.28101 -1.29434,0.42151 -2.04369,0.42151 -0.75787,0 -1.44761,-0.1405 -2.06923,-0.42151 -0.62162,-0.28101 -1.15383,-0.68974 -1.59663,-1.22621 -0.4428,-0.54498 -0.78767,-1.21769 -1.03461,-2.01814 -0.24695,-0.80044 -0.37042,-1.72436 -0.37042,-2.77175 l 0,-1.43058 m 1.43058,1.43058 c 0,0.79193 0.0809,1.50297 0.24269,2.1331 0.16179,0.63014 0.39596,1.1666 0.70251,1.6094 0.31507,0.4428 0.69826,0.78342 1.14958,1.02184 0.45131,0.23843 0.96648,0.35765 1.54553,0.35765 0.6131,0 1.14531,-0.11922 1.59663,-0.35765 0.45131,-0.23842 0.82598,-0.57904 1.12403,-1.02184 0.29803,-0.4428 0.51943,-0.97926 0.6642,-1.6094 0.15327,-0.63013 0.2299,-1.34117 0.22991,-2.1331 l 0,-1.43058 c -1e-5,-0.77489 -0.0809,-1.4774 -0.24268,-2.10755 -0.16181,-0.63864 -0.40024,-1.17937 -0.71529,-1.62218 -0.30657,-0.4513 -0.6855,-0.79617 -1.1368,-1.03461 -0.45133,-0.24693 -0.9665,-0.37041 -1.54554,-0.37042 -0.57054,1e-5 -1.08146,0.12349 -1.53277,0.37042 -0.4428,0.23844 -0.82173,0.58331 -1.1368,1.03461 -0.30655,0.44281 -0.54072,0.98354 -0.70251,1.62218 -0.1618,0.63015 -0.24269,1.33266 -0.24269,2.10755 l 0,1.43058"
       id="path4030"
       inkscape:connector-curvature="0" />
    <path
       d="m 187.13999,129.81755 0,-18.59754 4.71325,0 c 0.79192,2e-5 1.50296,0.0979 2.1331,0.29378 0.63864,0.18735 1.17511,0.48113 1.6094,0.88134 0.44279,0.39172 0.77915,0.89413 1.00907,1.50722 0.23842,0.61312 0.35764,1.34118 0.35765,2.18419 -1e-5,0.95373 -0.22141,1.78398 -0.6642,2.49074 -0.44281,0.70678 -1.05591,1.2177 -1.83932,1.53276 0.46834,0.11923 0.88559,0.31934 1.25176,0.60034 0.37467,0.2725 0.69399,0.60885 0.95798,1.00907 0.26396,0.39171 0.46407,0.83451 0.60033,1.32839 0.14475,0.48538 0.21713,0.9963 0.21714,1.53277 -1e-5,0.85154 -0.12348,1.60514 -0.37042,2.26082 -0.23844,0.64717 -0.57905,1.19215 -1.02184,1.63495 -0.43429,0.4428 -0.96224,0.77916 -1.58386,1.00907 -0.62163,0.2214 -1.30711,0.3321 -2.05645,0.3321 l -5.31359,0 m 1.45613,-8.92835 0,7.57441 3.85746,0 c 0.562,0 1.06441,-0.0894 1.50721,-0.26824 0.44279,-0.17882 0.81747,-0.43428 1.12403,-0.76638 0.30654,-0.33209 0.54072,-0.73657 0.70252,-1.21344 0.16178,-0.47685 0.24268,-1.01332 0.24269,-1.6094 -1e-5,-0.52794 -0.0724,-1.01758 -0.21715,-1.4689 -0.13625,-0.4513 -0.34914,-0.84301 -0.63865,-1.17512 -0.28101,-0.33209 -0.63866,-0.59181 -1.07293,-0.77915 -0.43429,-0.19585 -0.94947,-0.29377 -1.54554,-0.29378 l -3.95964,0 m 0,-1.34117 3.38485,0 c 1.10699,1e-5 1.96704,-0.29377 2.58016,-0.88134 0.61309,-0.58755 0.91965,-1.46037 0.91966,-2.61847 -1e-5,-1.18362 -0.30231,-2.05219 -0.90689,-2.6057 -0.59608,-0.562 -1.50297,-0.84301 -2.72066,-0.84302 l -3.25712,0 0,6.94853"
       id="path4032"
       inkscape:connector-curvature="0" />
    <path
       d="m 208.38615,129.81755 c -0.0681,-0.22991 -0.12348,-0.51518 -0.16605,-0.85579 -0.0426,-0.34913 -0.0724,-0.70252 -0.0894,-1.06016 -0.17883,0.28952 -0.39171,0.56627 -0.63865,0.83024 -0.24695,0.25546 -0.53222,0.48538 -0.85579,0.68975 -0.31508,0.19585 -0.66847,0.35338 -1.06017,0.4726 -0.39171,0.11921 -0.81322,0.17882 -1.26453,0.17882 -0.57053,0 -1.08997,-0.0809 -1.55831,-0.24269 -0.45983,-0.16179 -0.85579,-0.40448 -1.18789,-0.72806 -0.3321,-0.32358 -0.58756,-0.72806 -0.76638,-1.21344 -0.17882,-0.48537 -0.26824,-1.05164 -0.26823,-1.69881 -1e-5,-0.63865 0.11069,-1.22621 0.33209,-1.76268 0.2214,-0.54498 0.54924,-1.01332 0.98353,-1.40504 0.44279,-0.39169 0.99203,-0.69825 1.64772,-0.91965 0.65568,-0.2214 1.4178,-0.33209 2.28637,-0.3321 l 2.33747,0 0,-1.92873 c -1e-5,-0.98777 -0.24695,-1.69455 -0.74084,-2.12033 -0.48538,-0.43427 -1.20067,-0.65141 -2.14587,-0.65142 -0.4428,1e-5 -0.85154,0.0681 -1.22621,0.20437 -0.36616,0.13626 -0.68123,0.32785 -0.9452,0.57479 -0.26398,0.23844 -0.46835,0.52796 -0.61311,0.86856 -0.14476,0.33211 -0.21714,0.69827 -0.21714,1.09848 l -1.41781,-0.0128 c 0,-0.53646 0.10644,-1.04738 0.31933,-1.53276 0.21288,-0.49388 0.51517,-0.92817 0.90688,-1.30285 0.39171,-0.37467 0.86431,-0.6727 1.41781,-0.89412 0.55349,-0.22138 1.1666,-0.33208 1.83932,-0.3321 0.62161,2e-5 1.18788,0.0767 1.69881,0.22992 0.51943,0.14477 0.96649,0.3832 1.34117,0.71529 0.37467,0.3236 0.66419,0.74936 0.86857,1.2773 0.21287,0.51945 0.31931,1.15384 0.31932,1.90318 l 0,7.05072 c -1e-5,0.23843 0.009,0.48538 0.0255,0.74084 0.017,0.25546 0.0383,0.50666 0.0639,0.75361 0.0341,0.23843 0.0724,0.46834 0.11496,0.68974 0.0511,0.21289 0.10643,0.40022 0.16605,0.56201 l 0,0.15328 -1.50722,0 m -3.89577,-1.11125 c 0.44279,0 0.85578,-0.0596 1.23898,-0.17883 0.3917,-0.12773 0.74083,-0.29803 1.04739,-0.51092 0.30655,-0.22139 0.57052,-0.47686 0.79193,-0.76638 0.2299,-0.28952 0.41298,-0.60033 0.54924,-0.93243 l 0,-3.35931 -2.1331,0 c -1.33691,1e-5 -2.34173,0.28101 -3.01443,0.84302 -0.67272,0.56202 -1.00908,1.31989 -1.00907,2.2736 -1e-5,0.91115 0.22139,1.5796 0.66419,2.00537 0.45131,0.41725 1.07293,0.62588 1.86487,0.62588"
       id="path4034"
       inkscape:connector-curvature="0" />
    <path
       d="m 217.95775,128.75739 c 0.3917,0 0.77064,-0.0511 1.1368,-0.15328 0.36616,-0.10218 0.68974,-0.27675 0.97076,-0.52369 0.28951,-0.24695 0.52368,-0.57479 0.70251,-0.98353 0.18733,-0.41725 0.29377,-0.93668 0.31933,-1.55831 l 1.36671,0 c -0.0341,0.74084 -0.17457,1.39652 -0.42151,1.96705 -0.24695,0.56202 -0.57479,1.03462 -0.98352,1.41781 -0.40875,0.37467 -0.87709,0.65994 -1.40504,0.85579 -0.52795,0.19585 -1.08997,0.29378 -1.68604,0.29378 -1.6605,0 -2.91225,-0.53647 -3.75527,-1.6094 -0.83451,-1.07293 -1.25176,-2.6653 -1.25176,-4.77712 l 0,-1.55831 c 0,-2.1118 0.41725,-3.70417 1.25176,-4.77711 0.84302,-1.07292 2.09052,-1.60939 3.7425,-1.60941 0.63013,2e-5 1.21343,0.1022 1.74991,0.30656 0.54497,0.19586 1.01332,0.49816 1.40503,0.90688 0.40021,0.40024 0.71954,0.91116 0.95798,1.53277 0.23842,0.61311 0.37041,1.33692 0.39596,2.17141 l -1.36671,0 c -0.0256,-0.63864 -0.12348,-1.18362 -0.29378,-1.63495 -0.17032,-0.45981 -0.39597,-0.83449 -0.67697,-1.12402 -0.2725,-0.28951 -0.59609,-0.49814 -0.97075,-0.62588 -0.36617,-0.13623 -0.76639,-0.20436 -1.20067,-0.20437 -0.65569,1e-5 -1.20918,0.11497 -1.66049,0.34487 -0.45132,0.22141 -0.81748,0.54925 -1.09848,0.98353 -0.28102,0.43429 -0.48538,0.9665 -0.61311,1.59663 -0.12773,0.62163 -0.1916,1.33266 -0.1916,2.13309 l 0,1.55831 c 0,0.80897 0.0596,1.52851 0.17883,2.15865 0.12772,0.63014 0.33209,1.16235 0.6131,1.59663 0.28101,0.42577 0.64717,0.75361 1.09848,0.98352 0.45983,0.2214 1.02184,0.3321 1.68604,0.3321"
       id="path4036"
       inkscape:connector-curvature="0" />
    <path
       d="m 228.51288,122.90734 -1.44335,1.6094 0,5.30081 -1.43058,0 0,-19.61938 1.43058,0 0,12.47925 1.18789,-1.50722 4.27897,-5.17308 1.76268,0 -4.85375,5.83728 5.31358,7.98315 -1.68604,0 -4.55998,-6.91021"
       id="path4038"
       inkscape:connector-curvature="0" />
    <path
       d="m 241.48211,130.07301 c -0.76638,0 -1.4689,-0.12347 -2.10755,-0.37042 -0.63865,-0.25546 -1.19215,-0.63865 -1.66049,-1.14957 -0.45983,-0.51944 -0.81748,-1.17086 -1.07294,-1.95427 -0.25546,-0.78341 -0.38319,-1.71159 -0.38319,-2.78453 l 0,-1.57108 c 0,-1.15808 0.13625,-2.14586 0.40874,-2.96334 0.27249,-0.82598 0.63439,-1.4987 1.08571,-2.01814 0.45982,-0.52794 0.98777,-0.91113 1.58385,-1.14958 0.60459,-0.24693 1.23898,-0.3704 1.90319,-0.37042 1.51572,2e-5 2.66529,0.50242 3.44872,1.50722 0.79191,0.99631 1.18788,2.52482 1.18789,4.58552 l 0,1.20067 -8.21306,0 0,0.77915 c -1e-5,0.84303 0.0937,1.57535 0.281,2.19697 0.18734,0.62162 0.45131,1.1368 0.79193,1.54553 0.34061,0.40874 0.74935,0.71529 1.22621,0.91966 0.47686,0.19586 1.00481,0.29378 1.58386,0.29378 0.71528,0 1.3369,-0.11921 1.86486,-0.35764 0.52795,-0.24695 1.00906,-0.62588 1.44336,-1.1368 l 0.74083,0.9452 c -0.18735,0.25546 -0.40875,0.49389 -0.6642,0.71529 -0.24695,0.2214 -0.54073,0.41725 -0.88134,0.58756 -0.3321,0.17031 -0.71104,0.3023 -1.1368,0.39596 -0.42577,0.10219 -0.90263,0.15328 -1.43058,0.15328 m -0.24268,-13.00295 c -0.50242,1e-5 -0.9665,0.0852 -1.39227,0.25546 -0.41725,0.17032 -0.78341,0.44281 -1.09848,0.81747 -0.30655,0.36618 -0.5535,0.84304 -0.74083,1.43059 -0.18734,0.58756 -0.29804,1.2986 -0.3321,2.13309 l 6.78248,0 0,-0.37042 c -0.017,-0.6727 -0.0937,-1.27303 -0.22991,-1.80099 -0.13626,-0.52795 -0.33637,-0.975 -0.60034,-1.34117 -0.25547,-0.36615 -0.58331,-0.6429 -0.98352,-0.83025 -0.40023,-0.19584 -0.86857,-0.29377 -1.40503,-0.29378"
       id="path4040"
       inkscape:connector-curvature="0" />
    <path
       d="m 250.42784,115.99712 0.0383,2.19697 c 0.40873,-0.74934 0.92817,-1.34542 1.55831,-1.78823 0.63864,-0.44278 1.36245,-0.66418 2.17141,-0.6642 0.57904,2e-5 1.09422,0.0937 1.54554,0.28101 0.45982,0.18735 0.84727,0.48539 1.16235,0.89411 0.32357,0.40875 0.57052,0.9367 0.74083,1.58386 0.1703,0.63866 0.25545,1.41356 0.25546,2.32469 l 0,8.99222 -1.40503,0 0,-9.00499 c -10e-6,-0.70677 -0.0639,-1.29858 -0.1916,-1.77545 -0.11922,-0.47685 -0.29378,-0.85578 -0.52369,-1.1368 -0.22992,-0.28951 -0.51093,-0.49388 -0.84302,-0.61311 -0.32359,-0.12772 -0.68975,-0.19158 -1.09848,-0.19159 -0.42578,1e-5 -0.81748,0.0894 -1.17512,0.26823 -0.34914,0.17032 -0.6642,0.40023 -0.94521,0.68974 -0.28101,0.28954 -0.52369,0.62164 -0.72806,0.9963 -0.20437,0.37469 -0.37042,0.76639 -0.49815,1.17512 l 0,9.59255 -1.4178,0 0,-13.82043 1.35394,0"
       id="path4042"
       inkscape:connector-curvature="0" />
    <path
       d="m 261.37892,122.26869 c 0,-1.15808 0.10219,-2.14586 0.30656,-2.96335 0.21288,-0.82598 0.51517,-1.50295 0.90688,-2.03091 0.3917,-0.52794 0.86431,-0.91539 1.41781,-1.16235 0.56201,-0.24693 1.18789,-0.3704 1.87763,-0.37042 0.82599,2e-5 1.52425,0.18736 2.09478,0.56202 0.57904,0.36617 1.05164,0.88135 1.41781,1.54554 l 0,-7.65105 1.41781,0 0,19.61938 -1.3284,0 -0.0639,-1.77545 c -0.36617,0.63865 -0.84303,1.1368 -1.43058,1.49444 -0.57906,0.35765 -1.28583,0.53647 -2.12033,0.53647 -0.68975,0 -1.31137,-0.12773 -1.86486,-0.38319 -0.5535,-0.26398 -1.02611,-0.6642 -1.41781,-1.20067 -0.38319,-0.53646 -0.68123,-1.21343 -0.89411,-2.03091 -0.21289,-0.81747 -0.31933,-1.78396 -0.31933,-2.89948 l 0,-1.29007 m 1.44336,1.29007 c -1e-5,1.7712 0.26397,3.07405 0.79192,3.90855 0.53647,0.83451 1.38374,1.25176 2.54184,1.25176 0.41724,0 0.79192,-0.0511 1.12403,-0.15328 0.3406,-0.1107 0.6429,-0.25971 0.90688,-0.44705 0.27248,-0.19585 0.50666,-0.42151 0.70252,-0.67697 0.19584,-0.26398 0.36615,-0.54924 0.51092,-0.8558 l 0,-7.16567 c -0.12774,-0.30654 -0.28527,-0.60032 -0.4726,-0.88134 -0.18735,-0.281 -0.41301,-0.52368 -0.67697,-0.72806 -0.25547,-0.21288 -0.55777,-0.38318 -0.90689,-0.51093 -0.34062,-0.12771 -0.73233,-0.19158 -1.17512,-0.19159 -1.16661,1e-5 -2.01814,0.42152 -2.55461,1.26453 -0.52795,0.83452 -0.79193,2.13311 -0.79192,3.89578 l 0,1.29007"
       id="path4044"
       inkscape:connector-curvature="0" />
  </g>
</svg>
